<svg width="61" height="64" viewBox="0 0 61 64" fill="none" xmlns="http://www.w3.org/2000/svg">
<ellipse cx="30.0731" cy="31.961" rx="30.0731" ry="31.961" fill="#EE5B3A"/>
<path d="M24.1981 49.2202V38.6495M35.5436 49.2202V10.2278H24.1981V35.2044M38.7852 49.2202V17.5485L49.3203 27.0224V49.2202M41.2163 49.2202V25.7305M21.3617 49.2202V42.0945M10.8267 49.2202V20.9936H21.3617V26.5918M15.689 26.5918H21.3617M21.3617 26.5918V30.4675M15.689 30.4675H21.3617M21.3617 30.4675V34.3432M15.689 34.3432H21.3617M21.3617 34.3432V38.2189M15.689 38.2189H21.3617M21.3617 38.2189V42.0945M15.689 42.0945H21.3617M29.8709 15.826H33.1124M29.8709 19.7017H33.1124M29.8709 27.0224H33.1124M29.8709 31.3287H33.1124M29.8709 35.2044H33.1124M24.1981 38.6495H27.0345M24.1981 38.6495V35.2044M24.1981 35.2044H27.4397" stroke="white" stroke-linecap="round"/>
</svg>
