<svg width="167" height="72" viewBox="0 0 167 72" fill="none" xmlns="http://www.w3.org/2000/svg">
<path d="M14.6462 12.4563C21.2103 12.4563 26.8513 14.8153 31.5692 19.5332C36.2872 24.2102 38.6462 29.7691 38.6462 36.2102C38.6462 42.6102 36.3077 48.2102 31.6308 53.0102C26.9949 57.8102 21.4974 60.2102 15.1385 60.2102H14.2154C9.90769 60.2102 5.88718 59.0614 2.15385 56.764V54.4871C6.01026 57.1127 10.2769 58.4255 14.9538 58.4255C19.6308 58.4255 23.959 56.8255 27.9385 53.6255C31.959 50.4255 34.6256 46.4871 35.9385 41.8102H13.2923V40.0255H36.3077C36.5128 38.7127 36.6154 37.4819 36.6154 36.3332C36.6154 30.2614 34.4615 25.0717 30.1538 20.764C25.8462 16.4153 20.6769 14.2409 14.6462 14.2409C10.1744 14.2409 6.01026 15.5537 2.15385 18.1794V15.964C6.05128 13.6255 10.2154 12.4563 14.6462 12.4563Z" fill="#D8BE84"/>
<path d="M44.7999 11.8L67.7538 59H65.5384L44.6153 16.2308L23.8153 59H21.8461L44.7999 11.8Z" fill="#D8BE84"/>
<path d="M74.7078 14.6308H60.1847V39.7385H72.3078V41.5231H60.1847V57.2154H74.7078V59H58.154V12.8461H74.7078V14.6308Z" fill="#D8BE84"/>
<path d="M99.6101 14.6308H85.2101V59H83.1793V12.8461H99.6101V14.6308Z" fill="#D8BE84"/>
<path d="M147.816 13.2563V59.4102H145.785V16.1486L113.6 59.4102H111.693V13.2563H113.723V56.3948L145.785 13.2563H147.816Z" fill="#D8BE84"/>
<path d="M148.431 13.2563H145.785V59.4102H147.754V44.764L161.723 59.4102H164L148.123 42.6717H148.923C152.451 42.6717 155.754 41.2153 158.831 38.3025C161.908 35.3896 163.446 31.964 163.446 28.0255C163.446 24.046 161.949 20.5999 158.954 17.6871C155.918 14.7332 152.41 13.2563 148.431 13.2563ZM148.861 40.8871H147.754V15.0409H148.554C151.918 15.0409 154.913 16.3332 157.538 18.9178C160.164 21.5025 161.477 24.5384 161.477 28.0255C161.477 31.5127 160.205 34.5281 157.661 37.0717C155.118 39.6153 152.185 40.8871 148.861 40.8871Z" fill="#D8BE84"/>
</svg>
