<svg width="810" height="351" viewBox="0 0 810 351" fill="none" xmlns="http://www.w3.org/2000/svg">
<path d="M73.2 60C93.4 60 112.4 65.2 130.2 75.6C148.2 86 162.5 100.2 173.1 118.2C183.9 136.2 189.3 156.1 189.3 177.9C189.3 200.5 184.1 220.9 173.7 239.1C163.5 257.1 149.6 271.3 132 281.7C114.4 291.9 95.1 297 74.1 297C62.1 297 51 295.6 40.8 292.8C30.8 290.2 21 286 11.4 280.2V269.1C21.2 275.7 31 280.6 40.8 283.8C50.6 286.8 62.1 288.3 75.3 288.3C90.9 288.3 105.6 284.7 119.4 277.5C133.4 270.3 145.4 260.4 155.4 247.8C165.4 235 172.3 220.8 176.1 205.2H64.8V196.5H177.9C178.9 190.1 179.4 184.2 179.4 178.8C179.4 159.4 174.6 141.3 165 124.5C155.6 107.5 142.7 94 126.3 84C110.1 73.8 92.1 68.7 72.3 68.7C59.3 68.7 48.4 70.2 39.6 73.2C31 76 21.6 80.9 11.4 87.9V76.8C22.2 70.6 31.7 66.3 39.9 63.9C48.1 61.3 59.2 60 73.2 60Z" fill="#D8BE84"/>
<path d="M303 289L207.6 82.6L113.7 289H102L207.9 58.9L313.8 289H303Z" fill="#D8BE84"/>
<path d="M284.7 64H365.4V72.7H294.6V195.1H353.7V203.8H294.6V280.3H365.4V289H284.7V64Z" fill="#D8BE84"/>
<path d="M405.5 64H485.6V72.7H415.4V289H405.5V64Z" fill="#D8BE84"/>
<path d="M544.5 66H554.4V275.7L710.7 66H720.6V291H710.7V80.7L553.8 291H544.5V66Z" fill="#D8BE84"/>
<path d="M722.1 209.4H726C748 209.4 765.3 203.1 777.9 190.5C790.5 177.7 796.8 160.1 796.8 137.7C796.8 124.5 793.6 112.4 787.2 101.4C780.6 90.4 771.7 81.8 760.5 75.6C749.3 69.2 737 66 723.6 66H710.7V291H720.3V219.9L787.2 291H799.5L722.1 209.4ZM720.3 200.7V74.7H724.2C735.8 74.7 746.4 77.5 756 83.1C765.6 88.7 773.2 96.4 778.8 106.2C784.4 115.8 787.2 126.4 787.2 138C787.2 157.8 781.7 173.2 770.7 184.2C759.7 195.2 744.7 200.7 725.7 200.7H720.3Z" fill="#D8BE84"/>
</svg>
